<svg width="34" height="34" viewBox="0 0 34 34" fill="none" xmlns="http://www.w3.org/2000/svg">
<path d="M17.2073 0C7.77439 0 0 7.38074 0 16.8802C0 26.2752 7.56707 34 17 34C26.3293 34 34 26.3796 34 16.8802C33.8963 7.38074 26.5366 0 17.2073 0ZM18.8659 4.24906C22.0793 4.24906 24.9817 5.91929 26.7439 8.42463C24.9817 7.48513 23.0122 6.85879 20.939 6.85879C15.4451 6.85879 10.8841 10.6168 9.53659 15.6275C9.32927 15.0012 9.32927 14.4792 9.32927 13.8529C9.32927 8.52902 13.5793 4.24906 18.8659 4.24906ZM26.9512 27.1103C24.4634 29.6157 21.0427 31.0771 17.2073 31.0771C9.53659 31.0771 3.31707 24.8137 3.31707 17.0889C3.31707 13.3309 4.76829 9.88608 7.15244 7.38074C6.11585 9.15536 5.59756 11.2431 5.59756 13.4353C5.59756 18.3416 8.5 22.6216 12.6463 24.5006C13.821 24.5006 11.8171 22.0996 11.8171 20.6382C11.8171 15.7319 15.7561 11.6607 20.7317 11.6607C25.6037 11.6607 29.6463 15.7319 29.6463 20.6382C29.5427 23.2479 28.5061 25.5445 26.9512 27.1103Z" fill="#F2F2F2"/>
</svg>
